<mxfile host="app.diagrams.net" agent="Mozilla/5.0 (Windows NT 10.0; Win64; x64) AppleWebKit/537.36 (KHTML, like Gecko) Chrome/128.0.0.0 Safari/537.36" version="24.7.12">
  <diagram id="2i4qga7weTXimYSR2r4y" name="Página-2">
    <mxGraphModel dx="2145" dy="-621" grid="1" gridSize="10" guides="1" tooltips="1" connect="1" arrows="1" fold="1" page="1" pageScale="1" pageWidth="827" pageHeight="1169" math="0" shadow="0">
      <root>
        <mxCell id="0" />
        <mxCell id="1" parent="0" />
        <mxCell id="-6n7xgKERIVpxmvqz6UG-1" value="" style="rounded=0;whiteSpace=wrap;html=1;" parent="1" vertex="1">
          <mxGeometry x="-320" y="1415" width="700" height="695" as="geometry" />
        </mxCell>
        <mxCell id="-6n7xgKERIVpxmvqz6UG-4" value="Priorizar riesgo" style="text;html=1;align=center;verticalAlign=middle;resizable=0;points=[];autosize=1;strokeColor=none;fillColor=none;" parent="1" vertex="1">
          <mxGeometry x="-320" y="1415" width="100" height="30" as="geometry" />
        </mxCell>
        <mxCell id="AxmTYT2sA5gF8doSfmYF-81" style="edgeStyle=orthogonalEdgeStyle;rounded=0;orthogonalLoop=1;jettySize=auto;html=1;" parent="1" source="-6n7xgKERIVpxmvqz6UG-6" target="AxmTYT2sA5gF8doSfmYF-80" edge="1">
          <mxGeometry relative="1" as="geometry" />
        </mxCell>
        <mxCell id="-6n7xgKERIVpxmvqz6UG-6" value="Ingresa a listado de riesgo" style="whiteSpace=wrap;html=1;" parent="1" vertex="1">
          <mxGeometry x="-80" y="1270" width="120" height="60" as="geometry" />
        </mxCell>
        <mxCell id="AxmTYT2sA5gF8doSfmYF-84" style="edgeStyle=orthogonalEdgeStyle;rounded=0;orthogonalLoop=1;jettySize=auto;html=1;" parent="1" source="AxmTYT2sA5gF8doSfmYF-80" edge="1">
          <mxGeometry relative="1" as="geometry">
            <mxPoint x="-20" y="1550" as="targetPoint" />
          </mxGeometry>
        </mxCell>
        <mxCell id="AxmTYT2sA5gF8doSfmYF-80" value="Realizar priorizacion" style="whiteSpace=wrap;html=1;" parent="1" vertex="1">
          <mxGeometry x="-80" y="1460" width="120" height="60" as="geometry" />
        </mxCell>
        <mxCell id="YIWdpPPbooYRm00-ufeF-3" style="edgeStyle=orthogonalEdgeStyle;rounded=0;orthogonalLoop=1;jettySize=auto;html=1;" edge="1" parent="1" source="AxmTYT2sA5gF8doSfmYF-128" target="AxmTYT2sA5gF8doSfmYF-130">
          <mxGeometry relative="1" as="geometry">
            <Array as="points">
              <mxPoint x="-145" y="1600" />
            </Array>
          </mxGeometry>
        </mxCell>
        <mxCell id="YIWdpPPbooYRm00-ufeF-6" style="edgeStyle=orthogonalEdgeStyle;rounded=0;orthogonalLoop=1;jettySize=auto;html=1;entryX=0.5;entryY=0;entryDx=0;entryDy=0;" edge="1" parent="1" source="AxmTYT2sA5gF8doSfmYF-128" target="YIWdpPPbooYRm00-ufeF-5">
          <mxGeometry relative="1" as="geometry">
            <Array as="points">
              <mxPoint x="131" y="1600" />
            </Array>
          </mxGeometry>
        </mxCell>
        <mxCell id="AxmTYT2sA5gF8doSfmYF-128" value="¿Existe un criterio de priorización?" style="rhombus;whiteSpace=wrap;html=1;" parent="1" vertex="1">
          <mxGeometry x="-101.25" y="1550" width="162.5" height="100" as="geometry" />
        </mxCell>
        <mxCell id="YIWdpPPbooYRm00-ufeF-4" style="edgeStyle=orthogonalEdgeStyle;rounded=0;orthogonalLoop=1;jettySize=auto;html=1;entryX=0;entryY=0.5;entryDx=0;entryDy=0;" edge="1" parent="1" source="AxmTYT2sA5gF8doSfmYF-130" target="-6n7xgKERIVpxmvqz6UG-6">
          <mxGeometry relative="1" as="geometry">
            <Array as="points">
              <mxPoint x="-145" y="2050" />
              <mxPoint x="-410" y="2050" />
              <mxPoint x="-410" y="1300" />
            </Array>
          </mxGeometry>
        </mxCell>
        <mxCell id="AxmTYT2sA5gF8doSfmYF-130" value="Ordenar riesgos segun criterio" style="whiteSpace=wrap;html=1;" parent="1" vertex="1">
          <mxGeometry x="-205" y="1950" width="120" height="60" as="geometry" />
        </mxCell>
        <mxCell id="AxmTYT2sA5gF8doSfmYF-137" value="Si" style="text;html=1;align=center;verticalAlign=middle;resizable=0;points=[];autosize=1;strokeColor=none;fillColor=none;" parent="1" vertex="1">
          <mxGeometry x="-160" y="1570" width="30" height="30" as="geometry" />
        </mxCell>
        <mxCell id="AxmTYT2sA5gF8doSfmYF-138" value="No" style="text;html=1;align=center;verticalAlign=middle;resizable=0;points=[];autosize=1;strokeColor=none;fillColor=none;" parent="1" vertex="1">
          <mxGeometry x="80" y="1570" width="40" height="30" as="geometry" />
        </mxCell>
        <mxCell id="YIWdpPPbooYRm00-ufeF-10" style="edgeStyle=orthogonalEdgeStyle;rounded=0;orthogonalLoop=1;jettySize=auto;html=1;" edge="1" parent="1" source="YIWdpPPbooYRm00-ufeF-5" target="YIWdpPPbooYRm00-ufeF-9">
          <mxGeometry relative="1" as="geometry">
            <Array as="points">
              <mxPoint x="15" y="1690" />
            </Array>
          </mxGeometry>
        </mxCell>
        <mxCell id="YIWdpPPbooYRm00-ufeF-14" style="edgeStyle=orthogonalEdgeStyle;rounded=0;orthogonalLoop=1;jettySize=auto;html=1;entryX=1;entryY=0.5;entryDx=0;entryDy=0;" edge="1" parent="1" source="YIWdpPPbooYRm00-ufeF-5" target="-6n7xgKERIVpxmvqz6UG-6">
          <mxGeometry relative="1" as="geometry">
            <Array as="points">
              <mxPoint x="540" y="1690" />
              <mxPoint x="540" y="1300" />
            </Array>
          </mxGeometry>
        </mxCell>
        <mxCell id="YIWdpPPbooYRm00-ufeF-5" value="¿Desea crear uno?" style="rhombus;whiteSpace=wrap;html=1;" vertex="1" parent="1">
          <mxGeometry x="50" y="1640" width="162.5" height="100" as="geometry" />
        </mxCell>
        <mxCell id="YIWdpPPbooYRm00-ufeF-7" value="Si" style="text;html=1;align=center;verticalAlign=middle;resizable=0;points=[];autosize=1;strokeColor=none;fillColor=none;" vertex="1" parent="1">
          <mxGeometry y="1660" width="30" height="30" as="geometry" />
        </mxCell>
        <mxCell id="YIWdpPPbooYRm00-ufeF-8" value="No" style="text;html=1;align=center;verticalAlign=middle;resizable=0;points=[];autosize=1;strokeColor=none;fillColor=none;" vertex="1" parent="1">
          <mxGeometry x="240" y="1660" width="40" height="30" as="geometry" />
        </mxCell>
        <mxCell id="YIWdpPPbooYRm00-ufeF-9" value="Ingresar criterio" style="whiteSpace=wrap;html=1;" vertex="1" parent="1">
          <mxGeometry x="-45" y="1731" width="120" height="60" as="geometry" />
        </mxCell>
        <mxCell id="YIWdpPPbooYRm00-ufeF-13" style="edgeStyle=orthogonalEdgeStyle;rounded=0;orthogonalLoop=1;jettySize=auto;html=1;entryX=0.5;entryY=0;entryDx=0;entryDy=0;" edge="1" parent="1" source="YIWdpPPbooYRm00-ufeF-9" target="AxmTYT2sA5gF8doSfmYF-130">
          <mxGeometry relative="1" as="geometry">
            <Array as="points">
              <mxPoint x="15" y="1810" />
              <mxPoint x="-145" y="1810" />
            </Array>
          </mxGeometry>
        </mxCell>
        <mxCell id="YIWdpPPbooYRm00-ufeF-15" value="" style="rounded=0;orthogonalLoop=1;jettySize=auto;html=1;dashed=1;endArrow=none;endFill=0;" edge="1" parent="1" target="YIWdpPPbooYRm00-ufeF-16" source="YIWdpPPbooYRm00-ufeF-9">
          <mxGeometry relative="1" as="geometry">
            <mxPoint x="-85" y="1986" as="sourcePoint" />
          </mxGeometry>
        </mxCell>
        <mxCell id="YIWdpPPbooYRm00-ufeF-16" value="El criterio se basa&amp;nbsp;&lt;span style=&quot;background-color: initial;&quot;&gt;los&amp;nbsp;&lt;/span&gt;&lt;div&gt;&lt;span style=&quot;background-color: initial;&quot;&gt;atributos de&amp;nbsp;&lt;/span&gt;&lt;/div&gt;&lt;div&gt;&lt;span style=&quot;background-color: initial;&quot;&gt;evaluaciones&lt;/span&gt;&lt;/div&gt;" style="ellipse;shape=cloud;whiteSpace=wrap;html=1;" vertex="1" parent="1">
          <mxGeometry x="61.25" y="1830" width="190" height="110" as="geometry" />
        </mxCell>
      </root>
    </mxGraphModel>
  </diagram>
</mxfile>
